<svg width="18" height="18" viewBox="0 0 18 18" fill="none" xmlns="http://www.w3.org/2000/svg">
<path d="M7.24444 14.4827C8.8533 14.4827 10.4161 13.9459 11.6854 12.9573L16.474 17.7459C16.8317 18.0914 17.4017 18.0815 17.7472 17.7237C18.0842 17.3748 18.0842 16.8216 17.7472 16.4727L12.9586 11.6841C15.4118 8.52619 14.8406 3.97752 11.6827 1.52434C8.52475 -0.928841 3.97612 -0.35758 1.52294 2.80033C-0.930245 5.95823 -0.358984 10.5069 2.79892 12.9601C4.07027 13.9477 5.63452 14.4835 7.24444 14.4827ZM3.39686 3.39549C5.52184 1.27048 8.96711 1.27044 11.0921 3.39542C13.2171 5.5204 13.2172 8.96567 11.0922 11.0907C8.96723 13.2157 5.52196 13.2157 3.39694 11.0908C3.3969 11.0907 3.3969 11.0907 3.39686 11.0907C1.27188 8.98119 1.25936 5.54848 3.36886 3.4235C3.37818 3.41414 3.3875 3.40482 3.39686 3.39549Z" fill="#686868"/>
</svg>
